<svg xmlns:xlink="http://www.w3.org/1999/xlink" width="128" height="129" viewBox="0 0 128 129" fill="none" xmlns="http://www.w3.org/2000/svg" class="wsc-svg-logo-mockitt-square">
<g filter="url(#mockitt-square-filter0_i)">
<rect y="0.5" width="128" height="128" rx="29.2" fill="url(#mockitt-square-paint0_linear)"/>
<path fill-rule="evenodd" clip-rule="evenodd" d="M42.6503 91.9589V37.1358H26.8721V91.9589H42.6503ZM44.5225 35.2637H25V93.8311H44.5225V35.2637Z" fill="white"/>
<path d="M34.7622 103.59C29.3712 103.59 25.001 99.2196 25.001 93.8286C25.001 88.4376 29.3712 84.0674 34.7622 84.0674C40.1532 84.0674 44.5234 88.4376 44.5234 93.8286C44.5234 99.2196 40.1532 103.59 34.7622 103.59Z" fill="#2E03A0"/>
<path fill-rule="evenodd" clip-rule="evenodd" d="M26.8731 93.8286C26.8731 98.1856 30.4052 101.718 34.7622 101.718C39.1192 101.718 42.6513 98.1856 42.6513 93.8286C42.6513 89.4716 39.1192 85.9395 34.7622 85.9395C30.4052 85.9395 26.8731 89.4716 26.8731 93.8286ZM25.001 93.8286C25.001 99.2196 29.3712 103.59 34.7622 103.59C40.1532 103.59 44.5234 99.2196 44.5234 93.8286C44.5234 88.4376 40.1532 84.0674 34.7622 84.0674C29.3712 84.0674 25.001 88.4376 25.001 93.8286Z" fill="white"/>
<path d="M43.1289 30.3066L72.4126 81.0275L55.5056 90.7887L26.222 40.0679L43.1289 30.3066Z" fill="white"/>
<path fill-rule="evenodd" clip-rule="evenodd" d="M69.8552 80.3422L42.4437 32.864L28.7793 40.7531L56.1909 88.2313L69.8552 80.3422ZM43.1289 30.3066L26.222 40.0679L55.5056 90.7887L72.4126 81.0275L43.1289 30.3066Z" fill="black"/>
<path d="M34.7622 45.0225C29.3712 45.0225 25.001 40.6522 25.001 35.2612C25.001 29.8703 29.3712 25.5 34.7622 25.5C40.1532 25.5 44.5234 29.8703 44.5234 35.2612C44.5234 40.6522 40.1532 45.0225 34.7622 45.0225Z" fill="white"/>
<path fill-rule="evenodd" clip-rule="evenodd" d="M26.8312 35.2612C26.8312 39.6414 30.382 43.1922 34.7622 43.1922C39.1424 43.1922 42.6932 39.6414 42.6932 35.2612C42.6932 30.8811 39.1424 27.3302 34.7622 27.3302C30.382 27.3302 26.8312 30.8811 26.8312 35.2612ZM25.001 35.2612C25.001 40.6522 29.3712 45.0225 34.7622 45.0225C40.1532 45.0225 44.5234 40.6522 44.5234 35.2612C44.5234 29.8703 40.1532 25.5 34.7622 25.5C29.3712 25.5 25.001 29.8703 25.001 35.2612Z" fill="black"/>
<path d="M83.4697 35.2637L83.4697 93.831L102.992 93.831L102.992 35.2637L83.4697 35.2637Z" fill="#13C1FF"/>
<path fill-rule="evenodd" clip-rule="evenodd" d="M85.3418 91.9589L85.3418 37.1358L101.12 37.1358L101.12 91.9589L85.3418 91.9589ZM83.4697 35.2637L102.992 35.2637L102.992 93.831L83.4697 93.831L83.4697 35.2637Z" fill="black"/>
<path d="M93.23 103.59C98.621 103.59 102.991 99.2196 102.991 93.8286C102.991 88.4376 98.621 84.0674 93.23 84.0674C87.839 84.0674 83.4688 88.4376 83.4688 93.8286C83.4688 99.2196 87.839 103.59 93.23 103.59Z" fill="#06CF13"/>
<path fill-rule="evenodd" clip-rule="evenodd" d="M101.119 93.8286C101.119 98.1856 97.587 101.718 93.23 101.718C88.8729 101.718 85.3409 98.1856 85.3409 93.8286C85.3409 89.4716 88.8729 85.9395 93.23 85.9395C97.587 85.9395 101.119 89.4716 101.119 93.8286ZM102.991 93.8286C102.991 99.2196 98.621 103.59 93.23 103.59C87.839 103.59 83.4688 99.2196 83.4688 93.8286C83.4688 88.4376 87.839 84.0674 93.23 84.0674C98.621 84.0674 102.991 88.4376 102.991 93.8286Z" fill="black"/>
<path d="M84.8643 30.3066L55.5806 81.0275L72.4875 90.7887L101.771 40.0679L84.8643 30.3066Z" fill="#FA52D6"/>
<path fill-rule="evenodd" clip-rule="evenodd" d="M58.1379 80.3422L85.5495 32.864L99.2138 40.7531L71.8023 88.2313L58.1379 80.3422ZM84.8643 30.3066L101.771 40.0679L72.4875 90.7887L55.5806 81.0275L84.8643 30.3066Z" fill="black"/>
<path d="M59.1542 94.3589C63.8229 97.0543 69.7928 95.4547 72.4882 90.786C75.1837 86.1173 73.5841 80.1474 68.9154 77.4519C64.2467 74.7564 58.2768 76.356 55.5813 81.0248C52.8858 85.6935 54.4854 91.6634 59.1542 94.3589Z" fill="#FF0000"/>
<path fill-rule="evenodd" clip-rule="evenodd" d="M70.8669 89.8499C68.6884 93.6232 63.8635 94.9161 60.0902 92.7376C56.3169 90.559 55.0241 85.7341 57.2026 81.9608C59.3811 78.1875 64.206 76.8947 67.9793 79.0732C71.7526 81.2517 73.0455 86.0766 70.8669 89.8499ZM72.4882 90.786C69.7928 95.4547 63.8229 97.0543 59.1542 94.3589C54.4854 91.6634 52.8858 85.6935 55.5813 81.0248C58.2768 76.356 64.2467 74.7564 68.9154 77.4519C73.5841 80.1474 75.1837 86.1173 72.4882 90.786Z" fill="black"/>
<path d="M93.23 45.0225C98.621 45.0225 102.991 40.6522 102.991 35.2612C102.991 29.8703 98.621 25.5 93.23 25.5C87.839 25.5 83.4688 29.8703 83.4688 35.2612C83.4688 40.6522 87.839 45.0225 93.23 45.0225Z" fill="#FFC400"/>
<path fill-rule="evenodd" clip-rule="evenodd" d="M101.161 35.2612C101.161 39.6414 97.6101 43.1922 93.23 43.1922C88.8498 43.1922 85.299 39.6414 85.299 35.2612C85.299 30.8811 88.8498 27.3302 93.23 27.3302C97.6101 27.3302 101.161 30.8811 101.161 35.2612ZM102.991 35.2612C102.991 40.6522 98.621 45.0225 93.23 45.0225C87.839 45.0225 83.4688 40.6522 83.4688 35.2612C83.4688 29.8703 87.839 25.5 93.23 25.5C98.621 25.5 102.991 29.8703 102.991 35.2612Z" fill="black"/>
</g>
<defs>
<filter id="mockitt-square-filter0_i" x="0" y="0.5" width="128" height="128" filterUnits="userSpaceOnUse" color-interpolation-filters="sRGB">
<feFlood flood-opacity="0" result="BackgroundImageFix"/>
<feBlend mode="normal" in="SourceGraphic" in2="BackgroundImageFix" result="shape"/>
<feColorMatrix in="SourceAlpha" type="matrix" values="0 0 0 0 0 0 0 0 0 0 0 0 0 0 0 0 0 0 127 0" result="hardAlpha"/>
<feOffset/>
<feGaussianBlur stdDeviation="0.5"/>
<feComposite in2="hardAlpha" operator="arithmetic" k2="-1" k3="1"/>
<feColorMatrix type="matrix" values="0 0 0 0 0 0 0 0 0 0 0 0 0 0 0 0 0 0 0.24 0"/>
<feBlend mode="darken" in2="shape" result="effect1_innerShadow"/>
</filter>
<linearGradient id="mockitt-square-paint0_linear" x1="-78.1996" y1="-104.437" x2="-83.2582" y2="149.398" gradientUnits="userSpaceOnUse">
<stop stop-color="#8003C0"/>
<stop offset="1" stop-color="#170297"/>
</linearGradient>
</defs>
</svg>